<svg width="188" height="89" viewBox="0 0 188 89" fill="none" xmlns="http://www.w3.org/2000/svg">
<path d="M16.9978 42.9418C16.4044 41.8041 15.3224 41.2347 13.7519 41.2337C12.8853 41.2337 12.172 41.4663 11.6119 41.9313C11.0518 42.3964 10.6112 43.1498 10.29 44.1916C9.96983 45.2343 9.7456 46.5967 9.61733 48.2788C9.48906 49.9609 9.42493 52.0209 9.42493 54.4589C9.42493 57.0574 9.51305 59.1576 9.6893 60.7594C9.86555 62.3612 10.1382 63.6037 10.5074 64.4868C10.8746 65.368 11.3392 65.9613 11.9012 66.2668C12.5016 66.5806 13.1715 66.7377 13.8488 66.7236C14.4329 66.7283 15.0125 66.6222 15.557 66.4108C16.0857 66.2022 16.5425 65.7851 16.9273 65.1595C17.3121 64.5338 17.6166 63.6526 17.8409 62.5159C18.0661 61.3792 18.1787 59.8807 18.1787 58.0204H25.1038C25.1111 59.7919 24.9662 61.5608 24.6706 63.3075C24.4243 64.8582 23.8753 66.3453 23.0549 67.6841C22.2474 68.9558 21.0973 69.9739 19.737 70.6214C18.3114 71.3204 16.4602 71.67 14.1837 71.67C11.5869 71.67 9.51893 71.2534 7.97968 70.4202C6.46188 69.61 5.22825 68.3549 4.4444 66.8234C3.62777 65.2569 3.09902 63.3814 2.85815 61.1971C2.60604 58.7993 2.48542 56.3896 2.49683 53.9787C2.48657 51.5751 2.60719 49.1727 2.85815 46.7823C3.09804 44.5862 3.62679 42.7029 4.4444 41.1324C5.23792 39.5866 6.46696 38.3071 7.97968 37.452C9.51893 36.5708 11.5869 36.1302 14.1837 36.1302C16.6531 36.1302 18.6012 36.5306 20.0278 37.3315C21.4545 38.1324 22.5208 39.1512 23.2268 40.3878C23.929 41.617 24.3785 42.9742 24.5486 44.3796C24.718 45.7114 24.8063 47.0523 24.813 48.3949H17.8879C17.8879 45.8962 17.5912 44.0785 16.9978 42.9418Z" fill="#233D7F"/>
<path d="M28.5174 52.3426C28.8699 50.6448 29.4471 49.2251 30.2491 48.0835C31.0456 46.9495 32.1343 46.0523 33.3995 45.4869C34.6979 44.8936 36.293 44.5969 38.1847 44.5969C40.1715 44.5666 41.8228 44.8314 43.1388 45.3915C44.4137 45.9202 45.5022 46.8164 46.2658 47.966C47.0344 49.1204 47.5793 50.5474 47.9005 52.2471C48.2217 53.9468 48.3818 55.9349 48.3808 58.2113C48.4035 60.1799 48.2263 62.1457 47.852 64.0785C47.4995 65.7773 46.9223 67.197 46.1204 68.3376C45.3338 69.4636 44.2403 70.3399 42.9699 70.8622C41.6715 71.4007 40.0775 71.67 38.1877 71.67C36.199 71.7023 34.5476 71.4541 33.2336 70.9254C31.9617 70.431 30.8711 69.5599 30.1081 68.4287C29.3375 67.2919 28.7921 65.8654 28.4719 64.149C28.1311 62.1881 27.9704 60.2001 27.9916 58.2098C27.9896 55.9981 28.1649 54.0423 28.5174 52.3426ZM34.7214 61.8653C34.7624 62.8416 34.9156 63.81 35.1782 64.7512C35.4191 65.5531 35.7799 66.1782 36.2607 66.6266C36.7414 67.0751 37.3828 67.2998 38.1847 67.3008C39.5311 67.3008 40.4613 66.5953 40.9754 65.1844C41.4894 63.7736 41.746 61.4492 41.745 58.2113C41.745 54.9724 41.4884 52.6476 40.9754 51.2367C40.4623 49.8258 39.5321 49.1204 38.1847 49.1204C37.3828 49.1204 36.7414 49.3451 36.2607 49.7945C35.7799 50.2439 35.4191 50.869 35.1782 51.6699C34.9159 52.6112 34.7626 53.5796 34.7214 54.5558C34.6568 55.6779 34.625 56.8964 34.626 58.2113C34.6269 59.5262 34.6588 60.7442 34.7214 61.8653Z" fill="#233D7F"/>
<path d="M58.2889 45.274V48.3038H58.3843C59.0893 47.0221 60.0034 46.0842 61.1265 45.4899C62.3162 44.8805 63.6381 44.5747 64.9746 44.5999C67.0916 44.5999 68.7189 45.177 69.8567 46.3314C70.9945 47.4857 71.5634 49.3617 71.5634 51.9592V71.1471H64.9261V53.3119C64.9261 51.9666 64.7014 51.0291 64.252 50.4994C63.8025 49.9697 63.0814 49.7049 62.0885 49.7049C59.7473 49.7049 58.5772 51.1319 58.5782 53.986V71.1545H51.9395V45.274H58.2889Z" fill="#233D7F"/>
<path d="M84.0681 37.8676V45.274H87.9162V49.7945H84.0681V63.7892C84.0681 64.8163 84.2204 65.5457 84.5249 65.9775C84.8294 66.4093 85.4629 66.6256 86.4255 66.6266C86.681 66.6266 86.938 66.6193 87.1951 66.6031C87.4521 66.587 87.6915 66.5635 87.9162 66.5312V71.1471C87.177 71.1471 86.4636 71.1716 85.7763 71.2206C85.0889 71.2695 84.3594 71.2935 83.5878 71.2925C82.5313 71.3124 81.4756 71.2234 80.4374 71.0267C79.6198 70.8524 78.9946 70.4999 78.5618 69.9693C78.129 69.4386 77.8323 68.7415 77.6717 67.8779C77.4939 66.7971 77.4132 65.7025 77.4308 64.6072V49.7945H74.0645V45.274H77.4308V37.8676H84.0681Z" fill="#233D7F"/>
<path d="M90.181 52.5776C90.181 51.0707 90.4214 49.8126 90.9022 48.8031C91.3445 47.8403 92.0126 46.9985 92.8498 46.349C93.7084 45.7055 94.6911 45.2469 95.7359 45.0023C96.8935 44.7243 98.0806 44.5872 99.2711 44.594C101.258 44.594 102.861 44.7864 104.081 45.1712C105.301 45.556 106.247 46.1008 106.919 46.8058C107.591 47.5116 108.064 48.3833 108.289 49.3318C108.538 50.3792 108.658 51.4527 108.649 52.5291V66.1405C108.631 67.0893 108.688 68.038 108.818 68.9779C108.951 69.7214 109.169 70.4473 109.467 71.1412H103.115C102.889 70.7249 102.719 70.2804 102.61 69.8195C102.497 69.3554 102.393 68.8986 102.297 68.4492H102.2C101.433 69.7994 100.544 70.6772 99.5311 71.0825C98.5186 71.4879 97.2134 71.6837 95.6154 71.67C94.461 71.67 93.4818 71.4697 92.6779 71.0693C91.9037 70.6927 91.2406 70.1213 90.7539 69.4112C90.2638 68.6859 89.9054 67.8801 89.6949 67.0305C89.4737 66.1741 89.3607 65.2934 89.3585 64.409C89.3381 63.3481 89.4667 62.2897 89.7404 61.2646C89.9678 60.4366 90.3683 59.6662 90.9154 59.0044C91.4779 58.3533 92.1651 57.8215 92.9364 57.4402C93.8837 56.9754 94.8746 56.605 95.8945 56.3344L99.6457 55.3254C100.639 55.0689 101.328 54.7159 101.714 54.2665C102.099 53.8171 102.292 53.1601 102.291 52.2956C102.291 51.3018 102.058 50.5244 101.593 49.9634C101.128 49.4023 100.335 49.1213 99.2124 49.1204C98.1852 49.1204 97.4156 49.4253 96.9035 50.0353C96.3914 50.6453 96.1349 51.4629 96.1339 52.488V53.2091H90.181V52.5776ZM100.857 59.0396C100.405 59.2278 99.9393 59.3805 99.4635 59.4963C98.1172 59.7842 97.1552 60.2649 96.5774 60.9386C95.9997 61.6122 95.7114 62.5262 95.7123 63.6805C95.7123 64.6743 95.9043 65.5237 96.2881 66.2286C96.6719 66.9336 97.3133 67.2865 98.2122 67.2875C98.6854 67.2833 99.1554 67.2101 99.6075 67.0702C100.089 66.9257 100.538 66.6887 100.929 66.3726C101.346 66.0332 101.683 65.6065 101.916 65.1227C102.185 64.552 102.317 63.9264 102.301 63.2957V58.2113C101.86 58.5582 101.373 58.8415 100.853 59.0528L100.857 59.0396Z" fill="#233D7F"/>
<path d="M113.55 36.8087H120.477V65.4723H132.741V71.1471H113.55V36.8087Z" fill="#DE5B15"/>
<path d="M142.505 45.274V71.1471H135.868V45.274H142.505Z" fill="#DE5B15"/>
<path d="M166.072 45.274L159.578 71.1471H151.883L145.198 45.274H152.124L155.834 63.7892H155.931L159.442 45.274H166.072Z" fill="#DE5B15"/>
<path d="M174.194 61.2881C174.192 62.0369 174.249 62.7848 174.363 63.5249C174.458 64.1885 174.643 64.8359 174.915 65.4488C175.142 65.9705 175.488 66.4318 175.926 66.7955C176.363 67.1395 176.908 67.3183 177.465 67.3007C178.587 67.3007 179.405 66.8998 179.918 66.0979C180.431 65.296 180.783 64.0776 180.975 62.4425H186.94C186.814 65.461 186.014 67.7536 184.54 69.3201C183.065 70.8867 180.743 71.67 177.572 71.67C175.167 71.67 173.292 71.2695 171.945 70.4686C170.658 69.7308 169.62 68.6258 168.964 67.2949C168.304 65.9045 167.905 64.4045 167.789 62.8698C167.645 61.2357 167.573 59.6006 167.573 57.9646C167.569 56.2905 167.689 54.6184 167.934 52.9623C168.141 51.4576 168.63 50.0055 169.376 48.6827C170.112 47.4184 171.186 46.3852 172.478 45.6999C173.826 44.9626 175.622 44.594 177.866 44.594C179.788 44.594 181.367 44.9068 182.603 45.5325C183.801 46.124 184.809 47.0399 185.512 48.176C186.217 49.3147 186.698 50.6933 186.956 52.3117C187.224 54.1025 187.353 55.9115 187.341 57.7222V59.2129H174.194V61.2881ZM180.783 52.6554C180.711 51.9925 180.541 51.3441 180.278 50.7315C180.069 50.2393 179.717 49.8209 179.269 49.5301C178.836 49.2569 178.282 49.1204 177.609 49.1204C176.935 49.1204 176.382 49.2726 175.949 49.5771C175.514 49.8887 175.161 50.3015 174.921 50.7799C174.656 51.3027 174.47 51.862 174.369 52.4395C174.255 53.0419 174.196 53.6534 174.194 54.2665V55.2769H180.975C180.947 54.2831 180.885 53.4093 180.789 52.6554H180.783Z" fill="#DE5B15"/>
<path d="M153.658 19.8091C153.125 13.1855 150.465 8.76928 147.999 6.0376C146.25 6.89377 144.695 8.09811 143.428 9.57676C142.162 11.0554 141.21 12.7772 140.633 14.6365C138.277 14.1303 135.832 14.2297 133.525 14.9256C131.218 15.6215 129.125 16.891 127.442 18.6155C125.76 20.34 124.542 22.4631 123.903 24.7862C123.264 27.1093 123.224 29.5565 123.788 31.899C124.352 34.2414 125.501 36.4026 127.128 38.1803C128.754 39.958 130.805 41.2941 133.088 42.0638C135.372 42.8335 137.813 43.0115 140.184 42.5812C142.555 42.151 144.777 41.1264 146.645 39.6035C146.645 39.6035 154.698 32.7229 153.658 19.8091Z" fill="#233D7F"/>
<path d="M179.766 22.2676C178.919 19.838 177.336 17.7322 175.238 16.2422C173.14 14.7522 170.631 13.9519 168.057 13.9521C167.91 13.9521 167.778 13.9521 167.64 13.9595C166.468 10.7609 164.191 8.08719 161.219 6.42195C158.247 4.7567 154.777 4.20985 151.437 4.88031C157.635 8.55192 164.682 17.634 161.36 40.0368C163.346 41.1389 165.639 41.5577 167.886 41.2287C170.133 40.8996 172.21 39.8409 173.796 38.2157C174.89 38.9292 176.131 39.3877 177.427 39.5574C178.722 39.727 180.039 39.6034 181.281 39.1957C182.522 38.788 183.656 38.1066 184.598 37.2019C185.541 36.2972 186.268 35.1923 186.727 33.9687C187.185 32.7452 187.362 31.4344 187.246 30.1331C187.129 28.8318 186.722 27.5733 186.054 26.4506C185.386 25.3278 184.474 24.3696 183.385 23.6466C182.297 22.9236 181.06 22.4543 179.766 22.2735V22.2676Z" fill="#233D7F"/>
<path d="M151.437 4.87443C151.437 4.87443 149.567 5.14319 147.998 6.0376C147.998 6.0376 143.959 1.94741 136.488 0.959015C136.488 0.959015 145.406 1.17491 151.437 4.87443Z" fill="#DE5B15"/>
<path d="M101.785 85.9158L104.061 77.8823H105.434L102.338 87.8368H101.244L98.1597 77.8823H99.5271L101.785 85.9158Z" fill="#233D7F"/>
<path d="M109.078 77.3419H110.61L108.779 79.351H107.759L109.078 77.3419ZM109.031 87.8354H107.821V80.4378H109.031V87.8354Z" fill="#233D7F"/>
<path d="M114.232 85.9966L115.635 80.4378H116.866L114.67 87.8354H113.768L111.546 80.4378H112.777L114.232 85.9966Z" fill="#233D7F"/>
<path d="M121.801 87.972C120.88 87.972 120.174 87.6973 119.681 87.148C119.189 86.5988 118.938 85.7935 118.929 84.7321V83.8362C118.929 82.7338 119.17 81.8687 119.65 81.2411C120.131 80.6135 120.802 80.3002 121.664 80.3012C122.529 80.3012 123.176 80.5773 123.606 81.1295C124.036 81.6817 124.252 82.5429 124.256 83.7129V84.5059H120.132V84.6778C120.132 85.4708 120.281 86.047 120.58 86.4064C120.879 86.7657 121.308 86.9459 121.868 86.9468C122.193 86.9536 122.515 86.8847 122.808 86.7456C123.105 86.5895 123.365 86.3717 123.57 86.1068L124.201 86.8719C123.676 87.6053 122.876 87.972 121.801 87.972ZM121.664 81.341C121.162 81.341 120.792 81.5128 120.549 81.8565C120.307 82.2002 120.17 82.7377 120.139 83.4603H123.052V83.2958C123.02 82.5938 122.893 82.0925 122.672 81.7919C122.45 81.4913 122.114 81.341 121.664 81.341Z" fill="#233D7F"/>
<path d="M128.137 87.8354H126.926V77.3345H128.137V87.8354Z" fill="#233D7F"/>
<path d="M130.904 83.7951C130.904 82.7181 131.165 81.8668 131.688 81.2411C131.937 80.9358 132.253 80.6921 132.612 80.5291C132.971 80.3661 133.362 80.2881 133.756 80.3012C134.148 80.2873 134.537 80.3624 134.895 80.5209C135.254 80.6794 135.571 80.9171 135.824 81.2162C136.345 81.8271 136.613 82.6594 136.628 83.7129V84.4927C136.628 85.5638 136.368 86.4113 135.848 87.0349C135.589 87.3271 135.271 87.5615 134.916 87.7229C134.56 87.8843 134.175 87.9691 133.784 87.9717C133.394 87.9743 133.007 87.8948 132.65 87.7382C132.292 87.5816 131.972 87.3515 131.709 87.0628C131.191 86.4568 130.922 85.6363 130.904 84.6014V83.7951ZM132.116 84.4927C132.116 85.2535 132.262 85.8512 132.556 86.2859C132.684 86.4897 132.862 86.6569 133.074 86.7715C133.285 86.886 133.523 86.9438 133.763 86.9395C134.83 86.9395 135.379 86.1694 135.411 84.6293V83.7951C135.411 83.0392 135.261 82.441 134.96 82.0004C134.833 81.7954 134.654 81.627 134.442 81.5114C134.23 81.3959 133.992 81.3372 133.75 81.341C133.511 81.3382 133.275 81.3976 133.066 81.5131C132.857 81.6287 132.681 81.7966 132.556 82.0004C132.262 82.44 132.116 83.0358 132.116 83.7878V84.4927Z" fill="#233D7F"/>
<path d="M150.278 83.7334C150.278 85.0924 149.989 86.1386 149.41 86.8719C148.831 87.6053 148.009 87.972 146.943 87.972C145.915 87.972 145.105 87.6151 144.512 86.9013C143.918 86.1875 143.609 85.1796 143.585 83.8774V82.0034C143.585 80.6728 143.879 79.6305 144.466 78.8766C145.054 78.1227 145.874 77.7453 146.926 77.7443C147.975 77.7443 148.792 78.1056 149.378 78.8282C149.963 79.5507 150.263 80.5822 150.277 81.9226L150.278 83.7334ZM149.028 81.9902C149.028 80.9376 148.856 80.1543 148.511 79.6403C148.166 79.1263 147.639 78.8683 146.928 78.8663C146.242 78.8663 145.722 79.1263 145.367 79.6462C145.011 80.1661 144.832 80.9342 144.829 81.9505V83.7349C144.829 84.7512 145.006 85.5262 145.359 86.0598C145.713 86.5934 146.24 86.8597 146.943 86.8587C147.643 86.8587 148.162 86.6139 148.501 86.1244C148.84 85.6348 149.015 84.8805 149.028 83.8612V81.9902Z" fill="#DE5B15"/>
<path d="M154.304 80.4378L154.338 81.2382C154.808 80.6145 155.407 80.3022 156.137 80.3012C157.444 80.3012 158.107 81.1741 158.126 82.9198V87.8354H156.923V82.9785C156.923 82.3999 156.825 81.9887 156.629 81.7449C156.523 81.6199 156.388 81.5216 156.237 81.4581C156.086 81.3946 155.922 81.3675 155.758 81.3792C155.461 81.3757 155.173 81.4801 154.947 81.6729C154.698 81.8876 154.5 82.1563 154.37 82.4587V87.8324H153.16V80.4378H154.304Z" fill="#DE5B15"/>
<path d="M162.486 86.7618H166.39V87.8354H161.229V77.8809H162.486V86.7618Z" fill="#233D7F"/>
<path d="M170.228 78.4757C170.235 78.6617 170.174 78.8438 170.056 78.9882C169.917 79.1191 169.733 79.1919 169.542 79.1919C169.351 79.1919 169.167 79.1191 169.028 78.9882C168.912 78.8433 168.852 78.6614 168.858 78.4757C168.852 78.2883 168.913 78.1049 169.028 77.9573C169.096 77.8896 169.176 77.8359 169.264 77.7992C169.352 77.7626 169.447 77.7437 169.542 77.7437C169.638 77.7437 169.732 77.7626 169.821 77.7992C169.909 77.8359 169.989 77.8896 170.056 77.9573C170.173 78.1044 170.234 78.288 170.228 78.4757ZM170.131 87.8354H168.921V80.4378H170.131V87.8354Z" fill="#233D7F"/>
<path d="M174.298 80.4378L174.333 81.2382C174.533 80.9467 174.802 80.7088 175.115 80.5454C175.429 80.382 175.777 80.2982 176.131 80.3012C177.439 80.3012 178.103 81.1741 178.121 82.9198V87.8354H176.917V82.9785C176.917 82.3999 176.819 81.9887 176.623 81.7449C176.517 81.6197 176.383 81.5213 176.231 81.4578C176.08 81.3942 175.916 81.3673 175.752 81.3792C175.455 81.3757 175.167 81.4801 174.941 81.6729C174.692 81.888 174.495 82.1566 174.364 82.4586V87.8324H173.154V80.4378H174.298Z" fill="#233D7F"/>
<path d="M183.698 87.972C182.778 87.972 182.071 87.6973 181.579 87.148C181.086 86.5988 180.835 85.7935 180.827 84.7321V83.8362C180.827 82.7338 181.067 81.8687 181.548 81.2411C182.029 80.6135 182.7 80.3002 183.561 80.3012C184.428 80.3012 185.075 80.5773 185.503 81.1295C185.931 81.6817 186.15 82.5404 186.16 83.7055V84.4986H182.03V84.6704C182.03 85.4635 182.179 86.0397 182.478 86.399C182.776 86.7584 183.206 86.9385 183.767 86.9395C184.092 86.9459 184.414 86.8771 184.707 86.7383C185.004 86.582 185.264 86.3642 185.469 86.0994L186.098 86.8646C185.574 87.6028 184.774 87.972 183.698 87.972ZM183.561 81.341C183.06 81.341 182.689 81.5128 182.447 81.8565C182.206 82.2016 182.069 82.7377 182.037 83.4603H184.949V83.2958C184.917 82.5938 184.791 82.0925 184.571 81.7919C184.349 81.4908 184.014 81.341 183.561 81.341Z" fill="#233D7F"/>
</svg>
